<svg version="1.1" xmlns="http://www.w3.org/2000/svg" xmlns:xlink="http://www.w3.org/1999/xlink" width="448" height="69" viewBox="0,0,448,69"><g transform="translate(-96,-145.5)"><g data-paper-data="{&quot;isPaintingLayer&quot;:true}" stroke-linecap="butt" stroke-linejoin="miter" stroke-miterlimit="10" stroke-dasharray="" stroke-dashoffset="0" style="mix-blend-mode: normal"><path d="M97,213.5v-67h446v67z" fill="#ff0000" fill-rule="nonzero" stroke="#000000" stroke-width="2"/><path d="M150.44657,162.76402c3.57901,-0.07305 5.36317,1.62613 5.35246,5.09758c-1.19997,2.85205 -3.32413,3.78659 -6.37198,2.80367c-2.86979,-3.06457 -2.52993,-5.69833 1.01952,-7.90126z" fill="#0b0b0b" fill-rule="evenodd" stroke="none" stroke-width="1"/><path d="M109.66589,163.78353c2.71869,0 5.43744,0 8.15613,0c0.08493,8.15792 -0.00005,16.31405 -0.25488,24.4684c-0.5119,4.42113 -2.97571,7.05485 -7.3915,7.90126c-3.05386,0.25462 -6.11241,0.3396 -9.17565,0.25488c0,-2.54879 0,-5.09758 0,-7.64638c2.21546,0.08447 4.4244,-0.00051 6.62686,-0.25488c0.79568,-0.1619 1.39042,-0.58668 1.78415,-1.2744c0.25483,-7.81444 0.3398,-15.63072 0.25488,-23.44889z" fill="#060606" fill-rule="evenodd" stroke="none" stroke-width="1"/><path d="M225.38106,163.78353c2.37904,0 4.75758,0 7.13662,0c0.08513,8.15792 0,16.31405 -0.25488,24.4684c-2.1624,6.47964 -6.6656,9.28331 -13.5086,8.41101c-6.76449,-2.22372 -9.73792,-6.89652 -8.92077,-14.01836c1.93198,-7.63659 6.77469,-10.69514 14.52812,-9.17565c0,2.37889 0,4.75773 0,7.13662c-1.87693,-0.08426 -3.7457,0.00071 -5.60734,0.25488c-2.91072,3.28529 -2.57071,6.17394 1.01952,8.66589c2.28831,0.42799 4.07246,-0.33664 5.35246,-2.29391c0.25488,-7.81444 0.34001,-15.63072 0.25488,-23.44889z" fill="#060606" fill-rule="evenodd" stroke="none" stroke-width="1"/><path d="M307.96192,163.78353c7.47663,0 14.95274,0 22.42937,0c0,2.54879 0,5.09758 0,7.64638c-2.37904,0 -4.75758,0 -7.13662,0c0,8.32604 0,16.65213 0,24.97816c-2.71854,0 -5.43759,0 -8.15613,0c0,-8.32604 0,-16.65213 0,-24.97816c-2.37904,0 -4.75758,0 -7.13662,0c0,-2.54879 0,-5.09758 0,-7.64638z" fill="#020202" fill-rule="evenodd" stroke="none" stroke-width="1"/><path d="M130.05623,172.95918c6.99694,-0.79507 11.66975,2.09353 14.01836,8.66589c1.25543,9.105 -2.65273,14.20258 -11.72444,15.29275c-8.31732,-1.66044 -11.88563,-6.75802 -10.70493,-15.29275c1.55232,-4.18507 4.35599,-7.07366 8.41101,-8.66589z" fill="#060606" fill-rule="evenodd" stroke="none" stroke-width="1"/><path d="M167.77835,172.95918c6.11455,-0.47509 10.27775,2.0737 12.48908,7.64638c0.25488,5.26479 0.3395,10.53227 0.25488,15.80251c-2.37904,0 -4.75758,0 -7.13662,0c0.08462,-4.76079 0,-9.51852 -0.25488,-14.27324c-1.04653,-1.9328 -2.66043,-2.52748 -4.84271,-1.78415c-0.61222,0.46006 -1.03736,1.05479 -1.2744,1.78415c-0.25488,4.75472 -0.3395,9.51245 -0.25488,14.27324c-2.37904,0 -4.75758,0 -7.13662,0c-0.21971,-5.64685 0.03517,-11.25419 0.76464,-16.82203c1.6246,-3.24354 4.08826,-5.45248 7.3915,-6.62686z" fill="#030303" fill-rule="evenodd" stroke="none" stroke-width="1"/><path d="M192.75652,172.95918c5.94123,-0.51358 10.35931,1.78033 13.25372,6.88174c-3.33892,2.8677 -6.90723,5.50147 -10.70493,7.90126c-1.34066,-1.32099 -2.1053,-2.85026 -2.29391,-4.58783c1.91873,-1.08675 3.70289,-2.36115 5.35246,-3.82319c-3.33943,-1.43283 -5.8036,-0.49829 -7.3915,2.80367c-0.89717,5.89979 1.567,8.36366 7.3915,7.3915c1.78415,-1.10449 3.2283,-2.54879 4.33295,-4.33295c1.52928,0.84961 3.05855,1.69918 4.58783,2.54879c-1.19742,4.59644 -4.17135,7.57001 -8.92077,8.92077c-9.83732,0.52806 -14.68002,-4.14474 -14.52812,-14.01836c0.65861,-2.35733 1.76325,-4.48134 3.31343,-6.37198c1.75,-1.38175 3.61928,-2.48624 5.60734,-3.31343z" fill="#080808" fill-rule="evenodd" stroke="none" stroke-width="1"/><path d="M257.49584,172.95918c7.5954,-0.75612 12.43811,2.47233 14.52812,9.68541c0.25488,4.58467 0.3395,9.17249 0.25488,13.76348c-2.37904,0 -4.75758,0 -7.13662,0c0.08462,-4.25139 0,-8.49936 -0.25488,-12.74396c-1.58892,-3.53135 -4.05258,-4.29599 -7.3915,-2.29391c-2.48813,6.25295 -0.4491,8.88667 6.1171,7.90126c0,2.37889 0,4.75773 0,7.13662c-10.02491,0.93602 -14.86761,-3.65181 -14.52812,-13.76348c1.09598,-4.74677 3.89965,-7.97522 8.41101,-9.68541z" fill="#060606" fill-rule="evenodd" stroke="none" stroke-width="1"/><path d="M339.05719,172.95918c5.94735,-0.51083 10.36492,1.78308 13.25372,6.88174c-3.41283,2.941 -7.06576,5.57477 -10.95981,7.90126c-1.0343,-1.28928 -1.96869,-2.64865 -2.80367,-4.07807c1.96818,-1.54334 4.00721,-2.98764 6.1171,-4.33295c-6.08906,-1.38252 -8.55324,1.0813 -7.3915,7.3915c2.34438,3.34519 5.3178,3.93987 8.92077,1.78415c1.03481,-0.9666 1.88458,-2.0711 2.54879,-3.31343c1.53692,0.99393 3.15082,1.84354 4.84271,2.54879c-1.88967,5.93496 -6.05287,8.99352 -12.48908,9.17565c-8.09955,-1.57281 -11.75248,-6.50049 -10.95981,-14.78299c1.36768,-4.6806 4.34161,-7.73915 8.92077,-9.17565z" fill="#080808" fill-rule="evenodd" stroke="none" stroke-width="1"/><path d="M364.54511,172.95918c6.76755,-0.74088 11.44,1.97781 14.01836,8.15613c0.25488,5.09473 0.3395,10.19231 0.25488,15.29275c-2.37904,0 -4.75758,0 -7.13662,0c0.08462,-4.59099 0,-9.17881 -0.25488,-13.76348c-2.36885,-3.12589 -4.91764,-3.29584 -7.64638,-0.50976c-1.46301,5.929 0.83091,8.30784 6.88174,7.13662c0.2926,2.62439 -0.04741,5.0882 -1.01952,7.3915c-8.77345,0.82739 -13.36128,-3.1657 -13.76348,-11.97932c0.29668,-5.87282 3.18497,-9.78094 8.66589,-11.72444z" fill="#050505" fill-rule="evenodd" stroke="none" stroke-width="1"/><path d="M390.03303,172.95918c3.70441,-0.65137 6.84809,0.36815 9.43053,3.05855c5.17201,-4.22029 10.09984,-3.88043 14.78299,1.01952c0.73354,0.90462 1.2433,1.92413 1.52928,3.05855c0.25488,5.43479 0.34001,10.87218 0.25488,16.31227c-2.20878,0 -4.41808,0 -6.62686,0c0.08462,-4.59099 0,-9.17881 -0.25488,-13.76348c-0.73864,-2.40504 -2.35254,-3.16968 -4.84271,-2.29391c-0.61222,0.46006 -1.03736,1.05479 -1.2744,1.78415c-0.25488,4.75472 -0.3395,9.51245 -0.25488,14.27324c-2.20878,0 -4.41808,0 -6.62686,0c0.08462,-4.76079 0,-9.51852 -0.25488,-14.27324c-1.43956,-2.30824 -3.30833,-2.64804 -5.60734,-1.01952c-0.25488,5.09473 -0.3395,10.19231 -0.25488,15.29275c-2.37904,0 -4.75758,0 -7.13662,0c-0.08462,-5.27024 0,-10.53773 0.25488,-15.80251c1.15358,-3.61551 3.4475,-6.1643 6.88174,-7.64638z" fill="#040404" fill-rule="evenodd" stroke="none" stroke-width="1"/><path d="M147.89778,173.46894c2.54879,0 5.09758,0 7.64638,0c0,7.64638 0,15.29275 0,22.93913c-2.54879,0 -5.09758,0 -7.64638,0c0,-7.64638 0,-15.29275 0,-22.93913z" fill="#0d0d0d" fill-rule="evenodd" stroke="none" stroke-width="1"/><path d="M275.84714,196.40807c0,-2.03903 0,-4.07807 0,-6.1171c2.98616,0.16424 5.87497,-0.00566 8.66589,-0.50976c1.00168,-0.22852 1.17142,-0.73828 0.50976,-1.52928c-2.9933,-0.94321 -5.62671,-2.47248 -7.90126,-4.58783c-2.41473,-4.218 -1.48034,-7.36147 2.80367,-9.43053c3.87162,-0.69128 7.77993,-0.94616 11.72444,-0.76464c0,2.03903 0,4.07807 0,6.1171c-2.72415,-0.08462 -5.44269,0.00031 -8.15613,0.25488c-0.23296,0.21104 -0.40322,0.46592 -0.50976,0.76464c2.26384,1.38838 4.64288,2.66277 7.13662,3.82319c3.56882,2.89344 3.99345,6.20687 1.2744,9.94029c-1.06387,0.65953 -2.16851,1.25426 -3.31343,1.78415c-4.0745,0.25473 -8.15257,0.3397 -12.2342,0.25488z" fill="#050505" fill-rule="evenodd" stroke="none" stroke-width="1"/><path d="M284.51303,189.78121c-2.79093,0.5041 -5.67973,0.674 -8.66589,0.50976c0,2.03903 0,4.07807 0,6.1171c-0.50211,-2.10755 -0.67186,-4.31648 -0.50976,-6.62686c3.05855,0 6.1171,0 9.17565,0z" fill="#464646" fill-rule="evenodd" stroke="none" stroke-width="1"/><path d="M475.5,149c0,4.333 0,8.667 0,13c-6.854,-0.324 -13.521,0.009 -20,1c0,2.333 0,4.667 0,7c15.412,-1.908 24.078,4.759 26,20c0.342,10.172 -3.991,17.338 -13,21.5c-9.943,1.365 -19.943,1.865 -30,1.5c0,-5 0,-10 0,-15c7.341,0.166 14.674,0 22,-0.5c6.985,-3.269 7.652,-7.602 2,-13c-7.326,-0.5 -14.659,-0.666 -22,-0.5c0,-11.667 0,-23.333 0,-35c11.667,0 23.333,0 35,0z" fill="#040404" fill-rule="evenodd" stroke="none" stroke-width="1"/><path d="M475.5,149c0.986,4.47 1.319,9.137 1,14c-7,0 -14,0 -21,0c6.479,-0.991 13.146,-1.324 20,-1c0,-4.333 0,-8.667 0,-13z" fill="#464646" fill-rule="evenodd" stroke="none" stroke-width="1"/></g></g></svg>