<svg version="1.1" xmlns="http://www.w3.org/2000/svg" xmlns:xlink="http://www.w3.org/1999/xlink" width="610.5474" height="138.96686" viewBox="0,0,610.5474,138.96686"><g transform="translate(-14.7263,-110.51657)"><g data-paper-data="{&quot;isPaintingLayer&quot;:true}" fill-rule="evenodd" stroke="none" stroke-width="1" stroke-linecap="butt" stroke-linejoin="miter" stroke-miterlimit="10" stroke-dasharray="" stroke-dashoffset="0" style="mix-blend-mode: normal"><path d="M393.53986,110.51657c5.26286,0.39039 6.64082,2.73358 4.13552,7.03038c-3.47301,1.98588 -5.67889,1.02065 -6.61683,-2.89486c0.48965,-1.59052 1.31675,-2.96848 2.48131,-4.13552z" fill="#131313"/><path d="M436.54926,110.51657c4.13552,0.54175 5.5143,2.74764 4.13552,6.61683c-5.21406,2.65666 -7.28182,1.00245 -6.20328,-4.96262c0.82297,-0.46814 1.51195,-1.01982 2.06776,-1.65421z" fill="#0e0e0e"/><path d="M32.09548,126.23155c0.48791,1.04711 0.90146,2.14964 1.24066,3.30842c0.41322,-5.78311 0.5511,-11.57284 0.41355,-17.36918c2.20564,0 4.41119,0 6.61683,0c0.13771,9.92938 -0.00008,19.85463 -0.41355,29.77574c-2.13947,2.09588 -4.34502,2.09588 -6.61683,0c-3.30842,-6.06515 -6.61683,-12.13113 -9.92525,-18.19628c0.32712,6.29178 0.465,12.63318 0.41355,19.02339c-2.48131,0 -4.96262,0 -7.44393,0c-0.13771,-9.65313 0.00008,-19.30295 0.41355,-28.94863c2.06553,-1.63601 4.40904,-2.04956 7.03038,-1.24066c3.07798,4.36545 5.83505,8.91453 8.27104,13.64721z" fill="#050505"/><path d="M33.74969,112.17078c0.13755,5.79634 -0.00033,11.58607 -0.41355,17.36918c-0.3392,-1.15877 -0.75275,-2.2613 -1.24066,-3.30842c0.55143,-4.6872 1.10278,-9.37357 1.65421,-14.06077z" fill="#8e8e8e"/><path d="M194.20783,112.17078c0,2.20589 0,4.41094 0,6.61683c2.11656,-0.24979 4.04702,0.02647 5.78973,0.8271c-2.20589,0 -4.41094,0 -6.61683,0c-0.2564,-2.65748 0.01902,-5.1388 0.8271,-7.44393z" fill="#707070"/><path d="M194.20783,112.17078c6.61683,0 13.23366,0 19.85049,0c0,2.20589 0,4.41094 0,6.61683c-2.11656,-0.24979 -4.04702,0.02647 -5.78973,0.8271c0,7.71936 0,15.43955 0,23.15891c-2.48131,0 -4.96262,0 -7.44393,0c0.27046,-7.86989 -0.00496,-15.58925 -0.8271,-23.15891c-1.74271,-0.80064 -3.67317,-1.07689 -5.78973,-0.8271c0,-2.20589 0,-4.41094 0,-6.61683z" fill="#060606"/><path d="M214.05832,112.17078c0.80808,2.30514 1.08351,4.78645 0.8271,7.44393c-2.20589,0 -4.41094,0 -6.61683,0c1.74271,-0.80064 3.67317,-1.07689 5.78973,-0.8271c0,-2.20589 0,-4.41094 0,-6.61683z" fill="#474747"/><path d="M319.92762,112.17078c2.75674,0 5.5143,0 8.27104,0c-0.45904,6.88316 -0.73447,13.77624 -0.8271,20.6776c-2.20589,0 -4.41094,0 -6.61683,0c-0.68815,-6.8691 -0.96358,-13.76135 -0.8271,-20.6776z" fill="#0f0f0f"/><path d="M344.74073,112.17078c0,2.20589 0,4.41094 0,6.61683c2.11656,-0.24979 4.04702,0.02647 5.78973,0.8271c-2.20589,0 -4.41094,0 -6.61683,0c-0.2564,-2.65748 0.01902,-5.1388 0.8271,-7.44393z" fill="#707070"/><path d="M344.74073,112.17078c6.61683,0 13.23366,0 19.85049,0c0,2.20589 0,4.41094 0,6.61683c-2.11656,-0.24979 -4.04702,0.02647 -5.78973,0.8271c0,7.71936 0,15.43955 0,23.15891c-2.48131,0 -4.96262,0 -7.44393,0c0.27046,-7.86989 -0.00496,-15.58925 -0.8271,-23.15891c-1.74271,-0.80064 -3.67317,-1.07689 -5.78973,-0.8271c0,-2.20589 0,-4.41094 0,-6.61683z" fill="#060606"/><path d="M364.59122,112.17078c0.80808,2.30514 1.08351,4.78645 0.8271,7.44393c-2.20589,0 -4.41094,0 -6.61683,0c1.74271,-0.80064 3.67317,-1.07689 5.78973,-0.8271c0,-2.20589 0,-4.41094 0,-6.61683z" fill="#474747"/><path d="M367.89964,112.17078c2.20589,0 4.41094,0 6.61683,0c-0.1373,3.31999 0.00083,6.62841 0.41355,9.92525c5.81537,-2.74516 9.95089,-1.09095 12.40656,4.96262c0.41355,5.23143 0.55085,10.46948 0.41355,15.71497c-2.20589,0 -4.41094,0 -6.61683,0c0.1373,-4.69464 -0.00083,-9.38184 -0.41355,-14.06077c-1.92963,-2.20589 -3.86009,-2.20589 -5.78973,0c-0.41272,4.67893 -0.55085,9.36612 -0.41355,14.06077c-2.20589,0 -4.41094,0 -6.61683,0c0,-10.20067 0,-20.40217 0,-30.60284z" fill="#020202"/><path d="M531.6662,116.3063c-2.20589,0 -4.41094,0 -6.61683,0c0,6.34141 0,12.68198 0,19.02339c-0.82049,-6.46464 -1.09674,-13.08147 -0.8271,-19.85049c2.65748,-0.2564 5.1388,0.01902 7.44393,0.8271z" fill="#afafaf"/><path d="M531.6662,116.3063c0,1.65421 0,3.30842 0,4.96262c1.65421,0 3.30842,0 4.96262,0c0,1.92963 0,3.86009 0,5.78973c-1.84858,-0.244 -3.50278,0.03226 -4.96262,0.8271c-0.47062,3.16698 0.08106,5.92454 1.65421,8.27104c0.88335,0.77251 1.98588,1.04877 3.30842,0.8271c0,1.92963 0,3.86009 0,5.78973c-6.38524,1.22825 -10.24534,-1.25306 -11.57945,-7.44393c0,-6.34141 0,-12.68198 0,-19.02339c2.20589,0 4.41094,0 6.61683,0z" fill="#020202"/><path d="M51.94597,120.44182c6.44504,-0.83786 10.99411,1.64346 13.64721,7.44393c1.76396,10.91281 -2.78511,16.01273 -13.64721,15.30142c-7.71655,-4.36876 -9.50855,-10.57204 -5.37617,-18.60984c1.62534,-1.69556 3.41743,-3.07434 5.37617,-4.13552z" fill="#060606"/><path d="M88.33854,120.44182c3.37128,-0.31347 6.40427,0.51363 9.09814,2.48131c7.08911,-4.37869 12.18903,-2.72448 15.30142,4.96262c0.41272,4.95518 0.55085,9.9178 0.41355,14.88787c-2.20589,0 -4.41094,0 -6.61683,0c0.1373,-4.69464 -0.00083,-9.38184 -0.41355,-14.06077c-1.58473,-2.09505 -3.23894,-2.09505 -4.96262,0c-0.41272,4.67893 -0.55085,9.36612 -0.41355,14.06077c-2.20589,0 -4.41094,0 -6.61683,0c0.1373,-4.69464 -0.00083,-9.38184 -0.41355,-14.06077c-1.65421,-2.20589 -3.30842,-2.20589 -4.96262,0c-0.41306,4.67893 -0.55093,9.36612 -0.41355,14.06077c-2.20564,0 -4.41119,0 -6.61683,0c-0.13746,-5.24549 0.00041,-10.48354 0.41355,-15.71497c1.14728,-3.16119 3.21504,-5.36708 6.20328,-6.61683z" fill="#040404"/><path d="M123.904,120.44182c6.44479,-0.83786 10.99386,1.64346 13.64721,7.44393c1.76421,10.91281 -2.78486,16.01273 -13.64721,15.30142c-7.71688,-4.36876 -9.50839,-10.57204 -5.37617,-18.60984c1.62526,-1.69556 3.41759,-3.07434 5.37617,-4.13552z" fill="#060606"/><path d="M165.2592,120.44182c6.00974,-0.85523 10.42151,1.35066 13.23366,6.61683c-3.27699,2.47139 -6.5854,4.9527 -9.92525,7.44393c-1.21915,-0.77417 -2.04625,-1.87753 -2.48131,-3.30842c1.46315,-1.70135 3.11735,-3.21743 4.96262,-4.54907c-3.17277,-1.52683 -5.51596,-0.5616 -7.03038,2.89486c-0.37551,5.13797 1.96768,7.48198 7.03038,7.03038c1.77331,-0.94786 3.28939,-2.18852 4.54907,-3.72197c1.70218,0.50619 3.21826,1.33329 4.54907,2.48131c-4.10822,7.98817 -10.1742,10.05593 -18.19628,6.20328c-4.63509,-5.12556 -5.32407,-10.77799 -2.06776,-16.95563c1.62526,-1.69556 3.41759,-3.07434 5.37617,-4.13552z" fill="#090909"/><path d="M221.50226,120.44182c5.15368,-0.53514 9.42733,1.11907 12.82011,4.96262c0.55168,0.8271 0.55168,1.65421 0,2.48131c-2.8014,2.52515 -5.83356,4.73103 -9.09814,6.61683c-1.26464,-1.01651 -2.22987,-2.25717 -2.89486,-3.72197c1.92963,-1.37878 3.86009,-2.75674 5.78973,-4.13552c-2.99329,-1.85354 -5.33647,-1.16456 -7.03038,2.06776c-1.31758,6.09327 1.02561,8.71188 7.03038,7.85749c1.25472,-1.39367 2.6335,-2.63433 4.13552,-3.72197c1.10253,0.55168 2.20589,1.10253 3.30842,1.65421c0.21422,3.53173 -1.43999,6.15117 -4.96262,7.85749c-7.678,2.98584 -13.05418,0.64183 -16.12852,-7.03038c-0.96688,-6.61021 1.3763,-11.57284 7.03038,-14.88787z" fill="#090909"/><path d="M253.75931,142.77362c0.2655,-4.57058 -0.00993,-8.98235 -0.8271,-13.23366c-2.23401,-3.28112 -4.57719,-3.28112 -7.03038,0c-0.9644,2.83448 -0.2746,5.03954 2.06776,6.61683c1.17366,0.78658 2.55162,1.062 4.13552,0.8271c0,1.92963 0,3.86009 0,5.78973c-6.01222,1.47307 -10.28504,-0.73281 -12.82011,-6.61683c-2.27536,-8.69948 0.89493,-13.93835 9.51169,-15.71497c5.47874,-0.09015 9.2007,2.39116 11.1659,7.44393c0.41272,4.95518 0.55085,9.9178 0.41355,14.88787c-2.20589,0 -4.41094,0 -6.61683,0z" fill="#060606"/><path d="M270.30138,120.44182c3.48211,-0.26219 6.65322,0.56491 9.51169,2.48131c7.11806,-4.45313 12.35693,-2.79892 15.71497,4.96262c0.41272,4.95518 0.55085,9.9178 0.41355,14.88787c-2.20589,0 -4.41094,0 -6.61683,0c0.1373,-4.69464 -0.00083,-9.38184 -0.41355,-14.06077c-1.43337,-1.73857 -3.08758,-2.014 -4.96262,-0.8271c-0.41272,4.95518 -0.55085,9.9178 -0.41355,14.88787c-2.20589,0 -4.41094,0 -6.61683,0c0.1373,-4.69464 -0.00083,-9.38184 -0.41355,-14.06077c-1.43337,-1.73857 -3.08758,-2.014 -4.96262,-0.8271c-0.41272,4.95518 -0.55085,9.9178 -0.41355,14.88787c-2.20589,0 -4.41094,0 -6.61683,0c-0.1373,-5.52092 0,-11.03522 0.41355,-16.54208c1.40111,-2.36386 3.19345,-4.2935 5.37617,-5.78973z" fill="#0a0a0a"/><path d="M483.69418,120.44182c6.10651,-0.60213 10.37933,1.87918 12.82011,7.44393c0.41272,4.95518 0.55085,9.9178 0.41355,14.88787c-2.20589,0 -4.41094,0 -6.61683,0c0.1373,-4.42004 -0.00083,-8.83099 -0.41355,-13.23366c-1.51029,-2.92547 -3.44075,-3.20172 -5.78973,-0.8271c-0.41272,4.67893 -0.55085,9.36612 -0.41355,14.06077c-2.20589,0 -4.41094,0 -6.61683,0c-0.1373,-5.24549 0,-10.48354 0.41355,-15.71497c1.14719,-3.16119 3.21495,-5.36708 6.20328,-6.61683z" fill="#080808"/><path d="M507.68019,120.44182c11.36854,0.48551 15.64219,6.27524 12.82011,17.36918c-6.03786,7.26776 -12.37844,7.54401 -19.02339,0.8271c-3.81626,-8.07998 -1.7485,-14.14513 6.20328,-18.19628z" fill="#0b0b0b"/><path d="M567.23166,142.77362c0.2655,-4.57058 -0.00993,-8.98235 -0.8271,-13.23366c-2.23401,-3.28112 -4.57719,-3.28112 -7.03038,0c-0.9644,2.83448 -0.2746,5.03954 2.06776,6.61683c1.17366,0.78658 2.55162,1.062 4.13552,0.8271c0,1.92963 0,3.86009 0,5.78973c-6.01222,1.47307 -10.28504,-0.73281 -12.82011,-6.61683c-2.27536,-8.69948 0.89493,-13.93835 9.51169,-15.71497c5.47874,-0.09015 9.2007,2.39116 11.1659,7.44393c0.41272,4.95518 0.55085,9.9178 0.41355,14.88787c-2.20589,0 -4.41094,0 -6.61683,0z" fill="#060606"/><path d="M141.27319,121.26892c2.20589,0 4.41094,0 6.61683,0c-0.12324,0.87011 0.01406,1.69722 0.41355,2.48131c1.90647,-2.00986 4.24966,-2.83697 7.03038,-2.48131c0,2.20589 0,4.41094 0,6.61683c-3.12066,-0.56078 -5.46385,0.54258 -7.03038,3.30842c-0.41272,3.85017 -0.55085,7.70943 -0.41355,11.57945c-2.20589,0 -4.41094,0 -6.61683,0c0,-7.16851 0,-14.33619 0,-21.5047z" fill="#0c0c0c"/><path d="M303.38554,121.26892c3.58384,0 7.16851,0 10.75235,0c0,1.92963 0,3.86009 0,5.78973c-2.8105,-0.26467 -5.56806,0.01075 -8.27104,0.8271c1.69887,1.40111 3.62933,2.36634 5.78973,2.89486c5.56806,4.21575 5.29264,8.07584 -0.8271,11.57945c-3.85017,0.41272 -7.70943,0.55085 -11.57945,0.41355c0,-1.92963 0,-3.86009 0,-5.78973c3.08179,0.26715 6.11478,-0.0091 9.09814,-0.8271c-3.11818,-1.90482 -6.01304,-4.10988 -8.68459,-6.61683c-1.18193,-3.90145 0.05872,-6.65819 3.72197,-8.27104z" fill="#080808"/><path d="M391.88565,121.26892c2.20589,0 4.41094,0 6.61683,0c0,7.16851 0,14.33619 0,21.5047c-2.20589,0 -4.41094,0 -6.61683,0c0,-7.16851 0,-14.33619 0,-21.5047z" fill="#000000"/><path d="M405.94641,121.26892c3.86009,0 7.71936,0 11.57945,0c0,1.92963 0,3.86009 0,5.78973c-2.8105,-0.26467 -5.56806,0.01075 -8.27104,0.8271c2.63184,1.52849 5.25128,3.1827 7.85749,4.96262c2.3101,4.22981 1.34487,7.4001 -2.89486,9.51169c-4.12642,0.41272 -8.26194,0.55085 -12.40656,0.41355c0,-1.92963 0,-3.86009 0,-5.78973c3.47632,0.35069 6.78473,-0.06286 9.92525,-1.24066c-3.21413,-1.26299 -6.10899,-3.05532 -8.68459,-5.37617c-1.10584,-3.79144 -0.14143,-6.82443 2.89486,-9.09814z" fill="#080808"/><path d="M434.06795,121.26892c2.20589,0 4.41094,0 6.61683,0c0,7.16851 0,14.33619 0,21.5047c-2.20589,0 -4.41094,0 -6.61683,0c0,-7.16851 0,-14.33619 0,-21.5047z" fill="#0b0b0b"/><path d="M444.8203,142.77362c0,-1.92963 0,-3.86009 0,-5.78973c3.20172,0.26054 6.23471,-0.01489 9.09814,-0.8271c-2.9966,-1.86843 -5.89146,-4.07431 -8.68459,-6.61683c-0.68484,-3.47135 0.55581,-6.09079 3.72197,-7.85749c3.57392,-0.41272 7.15776,-0.55085 10.75235,-0.41355c0,1.92963 0,3.86009 0,5.78973c-2.54086,-0.26219 -5.02217,0.01323 -7.44393,0.8271c2.53011,1.72534 5.14872,3.37955 7.85749,4.96262c1.8676,4.04536 0.9032,7.21565 -2.89486,9.51169c-4.12642,0.41272 -8.26194,0.55085 -12.40656,0.41355z" fill="#080808"/><path d="M536.62882,121.26892c0.80477,2.02475 1.0802,4.23064 0.8271,6.61683c-1.92963,0 -3.86009,0 -5.78973,0c1.45984,-0.79485 3.11405,-1.0711 4.96262,-0.8271c0,-1.92963 0,-3.86009 0,-5.78973z" fill="#717171"/><path d="M252.9322,129.53996c0.81718,4.25131 1.0926,8.66309 0.8271,13.23366c-0.55168,0 -1.10253,0 -1.65421,0c0,-1.92963 0,-3.86009 0,-5.78973c-1.5839,0.2349 -2.96186,-0.04053 -4.13552,-0.8271c1.65421,0 3.30842,0 4.96262,0c0,-2.20589 0,-4.41094 0,-6.61683z" fill="#a5a5a5"/><path d="M566.40456,129.53996c0.81718,4.25131 1.0926,8.66309 0.8271,13.23366c-0.55168,0 -1.10253,0 -1.65421,0c0,-1.92963 0,-3.86009 0,-5.78973c-1.5839,0.2349 -2.96186,-0.04053 -4.13552,-0.8271c1.65421,0 3.30842,0 4.96262,0c0,-2.20589 0,-4.41094 0,-6.61683z" fill="#a5a5a5"/><path d="M321.58182,135.32969c6.38441,-0.52108 8.03862,1.96024 4.96262,7.44393c-3.78069,1.55578 -5.98575,0.31513 -6.61683,-3.72197c0.01571,-1.51608 0.56657,-2.75674 1.65421,-3.72197z" fill="#0c0c0c"/><path d="M453.91844,136.15679c-2.86343,0.81222 -5.89642,1.08764 -9.09814,0.8271c0,1.92963 0,3.86009 0,5.78973c-0.80477,-2.02475 -1.0802,-4.23064 -0.8271,-6.61683c3.30842,0 6.61683,0 9.92525,0z" fill="#a6a6a6"/><path d="M533.32041,136.15679c1.37878,0 2.75674,0 4.13552,0c0.25309,2.38619 -0.02233,4.59208 -0.8271,6.61683c0,-1.92963 0,-3.86009 0,-5.78973c-1.32254,0.22166 -2.42507,-0.05459 -3.30842,-0.8271z" fill="#747474"/><path d="M204.96018,163.45122c5.26286,0.39039 6.64082,2.73358 4.13552,7.03038c-3.47301,1.98588 -5.67889,1.02065 -6.61683,-2.89486c0.48965,-1.59052 1.31675,-2.96848 2.48131,-4.13552z" fill="#131313"/><path d="M321.58182,164.27832c6.03041,-0.65424 11.26846,0.99997 15.71497,4.96262c-1.37878,1.92963 -3.03299,3.58384 -4.96262,4.96262c-4.83111,-3.58053 -9.38018,-3.30428 -13.64721,0.8271c-3.00239,8.49022 -0.10752,13.03929 8.68459,13.64721c6.97745,-4.45147 6.15034,-6.24298 -2.48131,-5.37617c0,-2.20589 0,-4.41094 0,-6.61683c5.23805,0 10.47692,0 15.71497,0c1.23321,9.2586 -2.35063,15.7373 -10.75235,19.43694c-15.01442,0.97267 -21.49312,-6.05771 -19.43694,-21.09115c2.25799,-5.17932 5.97996,-8.76399 11.1659,-10.75235z" fill="#070707"/><path d="M496.92784,163.45122c3.99078,-0.00993 5.78228,1.91971 5.37617,5.78973c-2.44161,3.29353 -4.92292,3.29353 -7.44393,0c-0.55168,-1.10253 -0.55168,-2.20589 0,-3.30842c0.86432,-0.72206 1.5533,-1.54917 2.06776,-2.48131z" fill="#151515"/><path d="M539.93724,163.45122c5.26286,0.39039 6.64082,2.73358 4.13552,7.03038c-3.47301,1.98588 -5.67889,1.02065 -6.61683,-2.89486c0.48965,-1.59052 1.31675,-2.96848 2.48131,-4.13552z" fill="#131313"/><path d="M33.74969,165.10543c0,2.20589 0,4.41094 0,6.61683c-3.47516,-0.26219 -6.78357,0.01406 -9.92525,0.8271c-0.94687,1.06945 -0.67119,2.03385 0.8271,2.89486c4.47232,1.99828 8.19428,4.89315 11.1659,8.68459c1.21047,5.16113 -0.58162,8.8831 -5.37617,11.1659c-4.95501,0.41272 -9.91764,0.55085 -14.88787,0.41355c0,-2.48131 0,-4.96262 0,-7.44393c4.13552,0 8.27104,0 12.40656,0c0.16832,-1.56323 -0.38311,-2.80388 -1.65421,-3.72197c-4.49887,-1.75015 -7.94516,-4.64502 -10.3388,-8.68459c-1.2943,-4.71532 0.22208,-8.16103 4.54907,-10.3388c4.40259,-0.41272 8.81387,-0.55085 13.23366,-0.41355z" fill="#050505"/><path d="M93.30116,165.10543c0.26964,7.04444 -0.00579,13.9367 -0.8271,20.6776c0,-1.65421 0,-3.30842 0,-4.96262c-1.65421,0 -3.30842,0 -4.96262,0c1.17341,-0.78658 2.55186,-1.062 4.13552,-0.8271c0,-2.20589 0,-4.41094 0,-6.61683c0.55168,-2.75674 1.10253,-5.5143 1.65421,-8.27104z" fill="#8f8f8f"/><path d="M93.30116,165.10543c2.20589,0 4.41094,0 6.61683,0c0.1373,7.17347 0,14.34198 -0.41355,21.5047c-1.6815,7.72267 -6.50683,10.89378 -14.47432,9.51169c-8.1253,-5.03293 -9.50384,-11.51163 -4.13552,-19.43694c2.98212,-2.89569 6.56621,-3.99905 10.75235,-3.30842c0,2.20589 0,4.41094 0,6.61683c-1.58366,-0.2349 -2.96211,0.04053 -4.13552,0.8271c-1.03371,0.06369 -1.72294,0.61537 -2.06776,1.65421c-1.43064,5.03624 0.36136,7.37942 5.37617,7.03038c1.27126,-0.91809 1.82211,-2.15874 1.65421,-3.72197c0.82131,-6.7409 1.09674,-13.63315 0.8271,-20.6776z" fill="#0c0c0c"/><path d="M184.28259,165.10543c4.41094,0 8.82272,0 13.23366,0c0,2.20589 0,4.41094 0,6.61683c-3.31999,-0.1373 -6.62841,0.00083 -9.92525,0.41355c-0.8271,1.72947 -0.27543,3.10743 1.65421,4.13552c5.45558,1.60375 9.03942,5.0503 10.75235,10.3388c-0.39287,3.96514 -2.32251,6.86 -5.78973,8.68459c-4.95518,0.41272 -9.9178,0.55085 -14.88787,0.41355c0,-2.48131 0,-4.96262 0,-7.44393c3.87002,0.1373 7.72929,-0.00083 11.57945,-0.41355c0.37799,-0.34242 0.65424,-0.75597 0.8271,-1.24066c-2.71538,-2.46642 -5.74754,-4.53418 -9.09814,-6.20328c-4.77983,-5.73431 -4.22815,-10.83423 1.65421,-15.30142z" fill="#060606"/><path d="M262.85745,165.10543c2.20589,0 4.41094,0 6.61683,0c0,10.20067 0,20.40217 0,30.60284c-2.20589,0 -4.41094,0 -6.61683,0c0,-10.20067 0,-20.40217 0,-30.60284z" fill="#000000"/><path d="M429.93243,165.10543c2.75674,0 5.5143,0 8.27104,0c-0.45904,6.88316 -0.73447,13.77624 -0.8271,20.6776c-2.20589,0 -4.41094,0 -6.61683,0c-0.68815,-6.8691 -0.96358,-13.76135 -0.8271,-20.6776z" fill="#0f0f0f"/><path d="M471.28762,165.10543c2.20589,0 4.41094,0 6.61683,0c-0.26798,3.35391 0.00744,6.66232 0.8271,9.92525c5.25624,-2.52101 9.25364,-1.14223 11.99301,4.13552c0.41355,5.50686 0.55085,11.02116 0.41355,16.54208c-2.20589,0 -4.41094,0 -6.61683,0c0.1373,-4.69464 -0.00083,-9.38184 -0.41355,-14.06077c-1.92963,-2.20589 -3.86009,-2.20589 -5.78973,0c-0.41272,4.67893 -0.55085,9.36612 -0.41355,14.06077c-2.20589,0 -4.41094,0 -6.61683,0c0,-10.20067 0,-20.40217 0,-30.60284z" fill="#010101"/><path d="M587.08216,165.10543c-0.26964,7.31904 0.00579,14.48755 0.8271,21.5047c1.75346,4.0495 4.09665,4.32493 7.03038,0.8271c1.41683,-4.90224 -0.37551,-7.38356 -5.37617,-7.44393c-0.80477,-2.02475 -1.0802,-4.23064 -0.8271,-6.61683c12.58769,0.89658 16.30966,7.23716 11.1659,19.02339c-7.6656,6.31411 -14.00618,5.21158 -19.02339,-3.30842c-0.41355,-7.99065 -0.55085,-15.98626 -0.41355,-23.98601c2.20589,0 4.41094,0 6.61683,0z" fill="#050505"/><path d="M587.08216,165.10543c0.55168,2.75674 1.10253,5.5143 1.65421,8.27104c-0.25309,2.38619 0.02233,4.59208 0.8271,6.61683c-1.40773,1.90234 -1.95858,4.10822 -1.65421,6.61683c-0.82131,-7.01715 -1.09674,-14.18566 -0.8271,-21.5047z" fill="#adadad"/><path d="M39.53941,169.24095c2.20564,0 4.41119,0 6.61683,0c0,1.65421 0,3.30842 0,4.96262c1.92988,0 3.85985,0 5.78973,0c0,2.20589 0,4.41094 0,6.61683c-1.92988,0 -3.85985,0 -5.78973,0c-0.13614,2.4962 0.00165,4.97751 0.41355,7.44393c1.68795,0.76342 3.48004,1.03884 5.37617,0.8271c0,2.20589 0,4.41094 0,6.61683c-4.35503,0.76838 -8.077,-0.33415 -11.1659,-3.30842c-1.17217,-7.65236 -1.58572,-15.37172 -1.24066,-23.15891z" fill="#0b0b0b"/><path d="M158.64237,174.20357c-0.79485,-1.45984 -1.0711,-3.11405 -0.8271,-4.96262c-1.92963,0 -3.86009,0 -5.78973,0c0,6.89226 0,13.78534 0,20.6776c-0.82131,-7.01715 -1.09674,-14.18566 -0.8271,-21.5047c2.48131,0 4.96262,0 7.44393,0c0,1.92963 0,3.86009 0,5.78973z" fill="#595959"/><path d="M158.64237,174.20357c1.65421,0 3.30842,0 4.96262,0c0,2.20589 0,4.41094 0,6.61683c-1.92963,0 -3.86009,0 -5.78973,0c-0.13647,2.4962 0.00165,4.97751 0.41355,7.44393c1.68812,0.76342 3.48045,1.03884 5.37617,0.8271c0,2.20589 0,4.41094 0,6.61683c-3.78896,0.47724 -7.2355,-0.34986 -10.3388,-2.48131c-0.65424,-1.02974 -1.06779,-2.13227 -1.24066,-3.30842c0,-6.89226 0,-13.78534 0,-20.6776c1.92963,0 3.86009,0 5.78973,0c-0.244,1.84858 0.03226,3.50278 0.8271,4.96262z" fill="#060606"/><path d="M455.57264,169.24095c2.20589,0 4.41094,0 6.61683,0c0,1.65421 0,3.30842 0,4.96262c1.92963,0 3.86009,0 5.78973,0c0,2.20589 0,4.41094 0,6.61683c-1.92963,0 -3.86009,0 -5.78973,0c-0.13647,2.4962 0.00165,4.97751 0.41355,7.44393c1.68812,0.76342 3.48045,1.03884 5.37617,0.8271c0,2.20589 0,4.41094 0,6.61683c-4.3547,0.76838 -8.07667,-0.33415 -11.1659,-3.30842c-1.17201,-7.65236 -1.58556,-15.37172 -1.24066,-23.15891z" fill="#0b0b0b"/><path d="M33.74969,165.10543c0.80783,2.30514 1.08351,4.78645 0.8271,7.44393c-3.58409,0 -7.16826,0 -10.75235,0c3.14167,-0.81304 6.45009,-1.0893 9.92525,-0.8271c0,-2.20589 0,-4.41094 0,-6.61683z" fill="#6f6f6f"/><path d="M109.84324,173.37646c5.15368,-0.53514 9.42733,1.11907 12.82011,4.96262c0.55168,0.8271 0.55168,1.65421 0,2.48131c-2.8014,2.52515 -5.83356,4.73103 -9.09814,6.61683c-1.26464,-1.01651 -2.22987,-2.25717 -2.89486,-3.72197c1.92963,-1.37878 3.86009,-2.75674 5.78973,-4.13552c-2.99329,-1.85354 -5.33647,-1.16456 -7.03038,2.06776c-1.31758,6.09327 1.02561,8.71188 7.03038,7.85749c1.25472,-1.39367 2.6335,-2.63433 4.13552,-3.72197c1.10253,0.55168 2.20589,1.10253 3.30842,1.65421c0.21422,3.53173 -1.43999,6.15117 -4.96262,7.85749c-7.61845,2.79065 -12.99463,0.44746 -16.12852,-7.03038c-0.96688,-6.61021 1.3763,-11.57284 7.03038,-14.88787z" fill="#080808"/><path d="M134.65635,173.37646c5.27031,-0.60379 9.26853,1.32667 11.99301,5.78973c0.41355,5.50686 0.55085,11.02116 0.41355,16.54208c-2.20589,0 -4.41094,0 -6.61683,0c0.27212,-4.99323 -0.00331,-9.95585 -0.8271,-14.88787c-1.37878,-1.10253 -2.75674,-1.10253 -4.13552,0c-0.8238,4.93202 -1.09922,9.89464 -0.8271,14.88787c-2.20589,0 -4.41094,0 -6.61683,0c-0.1373,-5.24549 0,-10.48354 0.41355,-15.71497c1.11907,-3.18435 3.18683,-5.39024 6.20328,-6.61683z" fill="#0b0b0b"/><path d="M220.67515,173.37646c4.99902,-0.67905 8.99641,0.97516 11.99301,4.96262c1.17862,5.69461 1.59217,11.48434 1.24066,17.36918c-2.20589,0 -4.41094,0 -6.61683,0c0.1373,-4.69464 -0.00083,-9.38184 -0.41355,-14.06077c-1.92963,-2.20589 -3.86009,-2.20589 -5.78973,0c-0.41272,4.67893 -0.55085,9.36612 -0.41355,14.06077c-2.20589,0 -4.41094,0 -6.61683,0c-0.1373,-5.24549 0,-10.48354 0.41355,-15.71497c1.67737,-2.64012 3.74513,-4.846 6.20328,-6.61683z" fill="#040404"/><path d="M251.278,196.53537c1.10253,-4.6872 1.10253,-9.37357 0,-14.06077c-2.23401,-3.28112 -4.57719,-3.28112 -7.03038,0c-1.09509,4.17936 0.42182,6.38524 4.54907,6.61683c1.0132,0.53927 1.56488,1.5045 1.65421,2.89486c-0.21422,1.47803 -0.76507,2.71869 -1.65421,3.72197c-9.56132,-0.89823 -13.28329,-6.13711 -11.1659,-15.71497c4.28605,-6.57465 9.93765,-8.09073 16.95563,-4.54907c1.75098,1.43172 2.99163,3.22405 3.72197,5.37617c0.55168,5.78973 0.55168,11.57945 0,17.36918c-3.59625,6.96008 -9.24785,9.30326 -16.95563,7.03038c-1.7882,-2.08596 -2.06362,-4.42914 -0.8271,-7.03038c3.26044,0.90981 6.56886,1.04794 9.92525,0.41355c0.62198,-0.55499 0.89823,-1.24396 0.8271,-2.06776z" fill="#070707"/><path d="M280.22663,173.37646c6.00974,-0.85523 10.42151,1.35066 13.23366,6.61683c-2.98088,2.87419 -6.2893,5.3555 -9.92525,7.44393c-0.8271,-1.10253 -1.65421,-2.20589 -2.48131,-3.30842c1.46315,-1.70135 3.11735,-3.21743 4.96262,-4.54907c-2.71125,-1.6203 -4.77901,-0.93132 -6.20328,2.06776c-1.50864,5.64747 0.55912,8.26608 6.20328,7.85749c1.77083,-1.08185 3.42504,-2.32251 4.96262,-3.72197c1.51525,0.61867 2.89404,1.44578 4.13552,2.48131c-4.66652,8.83512 -11.14522,10.48933 -19.43694,4.96262c-5.02135,-8.25367 -3.50444,-14.8705 4.54907,-19.85049z" fill="#0a0a0a"/><path d="M358.8015,195.70827c0.2655,-4.57058 -0.00993,-8.98235 -0.8271,-13.23366c-2.23401,-3.28112 -4.57719,-3.28112 -7.03038,0c-0.9644,2.83448 -0.2746,5.03954 2.06776,6.61683c1.17366,0.78658 2.55162,1.062 4.13552,0.8271c0,1.92963 0,3.86009 0,5.78973c-6.01222,1.47307 -10.28504,-0.73281 -12.82011,-6.61683c-2.27536,-8.69948 0.89493,-13.93835 9.51169,-15.71497c5.47874,-0.09015 9.2007,2.39116 11.1659,7.44393c0.41272,4.95518 0.55085,9.9178 0.41355,14.88787c-2.20589,0 -4.41094,0 -6.61683,0z" fill="#060606"/><path d="M375.34357,173.37646c3.48211,-0.26219 6.65322,0.56491 9.51169,2.48131c7.11806,-4.45313 12.35693,-2.79892 15.71497,4.96262c0.41272,4.95518 0.55085,9.9178 0.41355,14.88787c-2.20589,0 -4.41094,0 -6.61683,0c0.1373,-4.69464 -0.00083,-9.38184 -0.41355,-14.06077c-1.43337,-1.73857 -3.08758,-2.014 -4.96262,-0.8271c-0.41272,4.95518 -0.55085,9.9178 -0.41355,14.88787c-2.20589,0 -4.41094,0 -6.61683,0c0.1373,-4.69464 -0.00083,-9.38184 -0.41355,-14.06077c-1.43337,-1.73857 -3.08758,-2.014 -4.96262,-0.8271c-0.41272,4.95518 -0.55085,9.9178 -0.41355,14.88787c-2.20589,0 -4.41094,0 -6.61683,0c-0.1373,-5.52092 0,-11.03522 0.41355,-16.54208c1.40111,-2.36386 3.19345,-4.2935 5.37617,-5.78973z" fill="#0a0a0a"/><path d="M410.90904,173.37646c5.15368,-0.53514 9.42733,1.11907 12.82011,4.96262c0.55168,0.8271 0.55168,1.65421 0,2.48131c-2.8014,2.52515 -5.83356,4.73103 -9.09814,6.61683c-1.26464,-1.01651 -2.22987,-2.25717 -2.89486,-3.72197c1.92963,-1.37878 3.86009,-2.75674 5.78973,-4.13552c-2.99329,-1.85354 -5.33647,-1.16456 -7.03038,2.06776c-1.31758,6.09327 1.02561,8.71188 7.03038,7.85749c1.25472,-1.39367 2.6335,-2.63433 4.13552,-3.72197c1.10253,0.55168 2.20589,1.10253 3.30842,1.65421c0.21422,3.53173 -1.43999,6.15117 -4.96262,7.85749c-7.61845,2.79065 -12.99463,0.44746 -16.12852,-7.03038c-0.96688,-6.61021 1.3763,-11.57284 7.03038,-14.88787z" fill="#080808"/><path d="M55.25439,174.20357c2.20564,0 4.41119,0 6.61683,0c-0.13738,4.69464 0.0005,9.38184 0.41355,14.06077c2.34914,2.37462 4.27902,2.09836 5.78973,-0.8271c0.41306,-4.40267 0.55085,-8.81362 0.41355,-13.23366c2.20564,0 4.41119,0 6.61683,0c0.31215,5.58874 -0.1014,11.10304 -1.24066,16.54208c-3.25548,5.26203 -7.80455,6.77812 -13.64721,4.54907c-1.71219,-0.78409 -2.95284,-2.02475 -3.72197,-3.72197c-1.14504,-5.71611 -1.55859,-11.50584 -1.24066,-17.36918z" fill="#070707"/><path d="M203.30597,174.20357c2.20589,0 4.41094,0 6.61683,0c0,7.16851 0,14.33619 0,21.5047c-2.20589,0 -4.41094,0 -6.61683,0c0,-7.16851 0,-14.33619 0,-21.5047z" fill="#000000"/><path d="M495.27363,174.20357c2.20589,0 4.41094,0 6.61683,0c0,7.16851 0,14.33619 0,21.5047c-2.20589,0 -4.41094,0 -6.61683,0c0,-7.16851 0,-14.33619 0,-21.5047z" fill="#000000"/><path d="M506.02598,195.70827c0,-1.92963 0,-3.86009 0,-5.78973c2.9296,0.25888 5.68634,-0.01737 8.27104,-0.8271c1.02395,-0.2564 1.02395,-0.66995 0,-1.24066c-2.61034,-0.775 -4.95352,-2.01565 -7.03038,-3.72197c-2.3101,-4.22981 -1.34487,-7.4001 2.89486,-9.51169c3.57392,-0.41272 7.15776,-0.55085 10.75235,-0.41355c0,1.92963 0,3.86009 0,5.78973c-2.8105,-0.26467 -5.56806,0.01075 -8.27104,0.8271c3.05036,1.60127 5.94522,3.53091 8.68459,5.78973c1.35893,4.07597 0.11828,6.97083 -3.72197,8.68459c-3.85017,0.41272 -7.70943,0.55085 -11.57945,0.41355z" fill="#040404"/><path d="M538.28303,174.20357c2.20589,0 4.41094,0 6.61683,0c0,7.16851 0,14.33619 0,21.5047c-2.20589,0 -4.41094,0 -6.61683,0c0,-7.16851 0,-14.33619 0,-21.5047z" fill="#000000"/><path d="M552.34379,174.20357c3.86009,0 7.71936,0 11.57945,0c0,1.92963 0,3.86009 0,5.78973c-2.8105,-0.26467 -5.56806,0.01075 -8.27104,0.8271c2.63184,1.52849 5.25128,3.1827 7.85749,4.96262c2.3101,4.22981 1.34487,7.4001 -2.89486,9.51169c-4.12642,0.41272 -8.26194,0.55085 -12.40656,0.41355c0,-1.92963 0,-3.86009 0,-5.78973c3.47632,0.35069 6.78473,-0.06286 9.92525,-1.24066c-3.21413,-1.26299 -6.10899,-3.05532 -8.68459,-5.37617c-1.10584,-3.79144 -0.14143,-6.82443 2.89486,-9.09814z" fill="#080808"/><path d="M605.27844,174.20357c2.20589,0 4.41094,0 6.61683,0c-0.1373,4.69464 0.00083,9.38184 0.41355,14.06077c1.92963,2.20589 3.86009,2.20589 5.78973,0c0.41272,-4.67893 0.55085,-9.36612 0.41355,-14.06077c2.20589,0 4.41094,0 6.61683,0c0.47393,6.23223 -0.21587,12.29738 -2.06776,18.19628c-1.13975,1.41683 -2.51853,2.52019 -4.13552,3.30842c-0.41272,3.02058 -0.55002,6.05275 -0.41355,9.09814c-2.20589,0 -4.41094,0 -6.61683,0c0.13647,-3.0454 -0.00083,-6.07756 -0.41355,-9.09814c-2.80636,-1.42841 -4.736,-3.63429 -5.78973,-6.61683c-0.41272,-4.95518 -0.55085,-9.9178 -0.41355,-14.88787z" fill="#010101"/><path d="M251.278,182.47461c1.10253,4.6872 1.10253,9.37357 0,14.06077c-0.58642,-0.7477 -1.41352,-1.02313 -2.48131,-0.8271c0.88914,-1.00328 1.43999,-2.24393 1.65421,-3.72197c-0.08933,-1.39036 -0.64101,-2.35559 -1.65421,-2.89486c0.58642,-0.7477 1.41352,-1.02313 2.48131,-0.8271c0,-1.92963 0,-3.86009 0,-5.78973z" fill="#a3a3a3"/><path d="M357.97439,182.47461c0.81718,4.25131 1.0926,8.66309 0.8271,13.23366c-0.55168,0 -1.10253,0 -1.65421,0c0,-1.92963 0,-3.86009 0,-5.78973c-1.5839,0.2349 -2.96186,-0.04053 -4.13552,-0.8271c1.65421,0 3.30842,0 4.96262,0c0,-2.20589 0,-4.41094 0,-6.61683z" fill="#a5a5a5"/><path d="M431.58663,188.26433c6.92865,-0.18693 8.30743,2.43251 4.13552,7.85749c-5.79965,-0.1555 -7.17843,-2.77411 -4.13552,-7.85749z" fill="#0a0a0a"/><path d="M514.29702,189.09144c-2.5847,0.80973 -5.34144,1.08599 -8.27104,0.8271c0,1.92963 0,3.86009 0,5.78973c-0.80477,-2.02475 -1.0802,-4.23064 -0.8271,-6.61683c3.03299,0 6.06515,0 9.09814,0z" fill="#727272"/><path d="M14.7263,218.04007c6.8925,0 13.78509,0 20.6776,0c0,2.48131 0,4.96262 0,7.44393c-2.20564,0 -4.41119,0 -6.61683,0c0,7.71936 0,15.43955 0,23.15891c-2.48131,0 -4.96262,0 -7.44393,0c0,-7.71936 0,-15.43955 0,-23.15891c-2.20564,0 -4.41119,0 -6.61683,0c0,-2.48131 0,-4.96262 0,-7.44393z" fill="#030303"/><path d="M141.27319,218.04007c2.48131,0 4.96262,0 7.44393,0c0,6.89226 0,13.78534 0,20.6776c-2.48131,0 -4.96262,0 -7.44393,0c0,-6.89226 0,-13.78534 0,-20.6776z" fill="#080808"/><path d="M42.02072,226.31111c6.19426,-0.87259 10.88113,1.33329 14.06077,6.61683c-3.30842,2.48131 -6.61683,4.96262 -9.92525,7.44393c-1.53965,-0.85026 -2.64243,-2.09092 -3.30842,-3.72197c1.92988,-1.37878 3.85985,-2.75674 5.78973,-4.13552c-5.60991,-1.00741 -7.95335,1.3366 -7.03038,7.03038c1.3988,3.07104 3.74223,4.03544 7.03038,2.89486c1.54602,-1.27705 3.06235,-2.5177 4.54907,-3.72197c3.73073,0.71958 4.55784,2.64921 2.48131,5.78973c-4.59696,5.31332 -9.97314,6.27855 -16.12852,2.89486c-7.158,-7.9402 -6.3309,-14.97058 2.48131,-21.09115z" fill="#0c0c0c"/><path d="M66.83384,226.31111c6.03463,-0.77334 10.5837,1.43254 13.64721,6.61683c0.41314,5.23143 0.55102,10.46948 0.41355,15.71497c-2.20564,0 -4.41119,0 -6.61683,0c0.1373,-4.42004 -0.0005,-8.83099 -0.41355,-13.23366c-2.48131,-3.30842 -4.96262,-3.30842 -7.44393,0c-1.07664,5.39933 0.99112,7.60522 6.20328,6.61683c0.81395,2.42176 1.08963,4.90307 0.8271,7.44393c-10.84747,0.31513 -15.39654,-4.92375 -13.64721,-15.71497c1.39599,-3.46143 3.7395,-5.94274 7.03038,-7.44393z" fill="#070707"/><path d="M91.64695,226.31111c3.25548,-0.0182 6.28847,0.80891 9.09814,2.48131c6.60773,-4.1959 11.70848,-2.81712 15.30142,4.13552c0.41355,5.23143 0.55085,10.46948 0.41355,15.71497c-2.20589,0 -4.41094,0 -6.61683,0c0.1373,-4.69464 -0.00083,-9.38184 -0.41355,-14.06077c-1.65421,-2.20589 -3.30842,-2.20589 -4.96262,0c-0.41272,4.67893 -0.55085,9.36612 -0.41355,14.06077c-2.20589,0 -4.41094,0 -6.61683,0c0.1373,-4.69464 -0.00083,-9.38184 -0.41355,-14.06077c-1.72368,-2.09505 -3.37789,-2.09505 -4.96262,0c-0.41272,4.67893 -0.55085,9.36612 -0.41355,14.06077c-2.20564,0 -4.41119,0 -6.61683,0c-0.13746,-5.24549 0.00041,-10.48354 0.41355,-15.71497c1.11924,-3.18435 3.187,-5.39024 6.20328,-6.61683z" fill="#040404"/><path d="M119.76849,248.64291c0,-1.92963 0,-3.86009 0,-5.78973c3.20172,0.26054 6.23471,-0.01489 9.09814,-0.8271c-2.9966,-1.86843 -5.89146,-4.07431 -8.68459,-6.61683c-0.68484,-3.47135 0.55581,-6.09079 3.72197,-7.85749c3.57392,-0.41272 7.15776,-0.55085 10.75235,-0.41355c0,1.92963 0,3.86009 0,5.78973c-2.54086,-0.26219 -5.02217,0.01323 -7.44393,0.8271c2.53011,1.72534 5.14872,3.37955 7.85749,4.96262c1.8676,4.04536 0.9032,7.21565 -2.89486,9.51169c-4.12642,0.41272 -8.26194,0.55085 -12.40656,0.41355z" fill="#080808"/><path d="M142.10029,241.19898c5.7798,-0.70469 7.71026,1.63849 5.78973,7.03038c-3.92957,2.25386 -6.41088,1.1505 -7.44393,-3.30842c0.44994,-1.31096 1.00162,-2.55162 1.65421,-3.72197z" fill="#0a0a0a"/><path d="M128.86663,242.02608c-2.86343,0.81222 -5.89642,1.08764 -9.09814,0.8271c0,1.92963 0,3.86009 0,5.78973c-0.80477,-2.02475 -1.0802,-4.23064 -0.8271,-6.61683c3.30842,0 6.61683,0 9.92525,0z" fill="#a6a6a6"/></g></g></svg>