<svg version="1.1" xmlns="http://www.w3.org/2000/svg" xmlns:xlink="http://www.w3.org/1999/xlink" width="648.0422" height="362.36036" viewBox="0,0,648.0422,362.36036"><g transform="translate(4.47088,1.18018)"><g data-paper-data="{&quot;isPaintingLayer&quot;:true}" fill-rule="nonzero" stroke-linejoin="miter" stroke-miterlimit="10" stroke-dasharray="" stroke-dashoffset="0" style="mix-blend-mode: normal"><path d="M-1.32132,360.18018v-360.36036h642.64264v360.36036z" fill="#00d0ff" stroke="#ffffff" stroke-width="2" stroke-linecap="butt"/><path d="M437.17868,177.30001c0,-85.88028 -68.50043,-155.5 -153,-155.5c-84.49957,0 -153,69.61972 -153,155.5c0,85.88028 68.50043,155.5 153,155.5c84.49957,0 153,-69.61972 153,-155.5z" fill="#00d0ff" stroke="#ffffff" stroke-width="2.5" stroke-linecap="butt"/><path d="M406.17491,177.30001c0,-67.12336 -54.61957,-121.53759 -121.99623,-121.53759c-67.37665,0 -121.99622,54.41423 -121.99622,121.5376c0,67.12336 54.61957,121.53759 121.99622,121.53759c67.37666,0 121.99623,-54.41423 121.99623,-121.53759z" fill="#00d0ff" stroke="#ffffff" stroke-width="2.5" stroke-linecap="butt"/><path d="M406.17491,177.30001c0,-67.12336 -54.61957,-121.53759 -121.99623,-121.53759c-67.37665,0 -121.99622,54.41423 -121.99622,121.5376c0,67.12336 54.61957,121.53759 121.99622,121.53759c67.37666,0 121.99623,-54.41423 121.99623,-121.53759z" fill="#00d0ff" stroke="#ffffff" stroke-width="2.5" stroke-linecap="butt"/><path d="M406.17491,177.30001c0,-67.12336 -54.61957,-121.53759 -121.99623,-121.53759c-67.37665,0 -121.99622,54.41423 -121.99622,121.5376c0,67.12336 54.61957,121.53759 121.99622,121.53759c67.37666,0 121.99623,-54.41423 121.99623,-121.53759z" fill="#00d0ff" stroke="#ffffff" stroke-width="2.5" stroke-linecap="butt"/><path d="M406.17491,177.30001c0,-67.12336 -54.61957,-121.53759 -121.99623,-121.53759c-67.37665,0 -121.99622,54.41423 -121.99622,121.5376c0,67.12336 54.61957,121.53759 121.99622,121.53759c67.37666,0 121.99623,-54.41423 121.99623,-121.53759z" fill="#00d0ff" stroke="#ffffff" stroke-width="2.5" stroke-linecap="butt"/><path d="M406.17491,177.30001c0,-67.12336 -54.61957,-121.53759 -121.99623,-121.53759c-67.37665,0 -121.99622,54.41423 -121.99622,121.5376c0,67.12336 54.61957,121.53759 121.99622,121.53759c67.37666,0 121.99623,-54.41423 121.99623,-121.53759z" fill="#00d0ff" stroke="#ffffff" stroke-width="2.5" stroke-linecap="butt"/><path d="M374.05415,177.30001c0,-49.45025 -40.23862,-89.53759 -89.87547,-89.53759c-49.63685,0 -89.87547,40.08735 -89.87547,89.5376c0,49.45025 40.23862,89.53759 89.87547,89.53759c49.63685,0 89.87547,-40.08734 89.87547,-89.53759z" fill="#00d0ff" stroke="#ffffff" stroke-width="2.5" stroke-linecap="butt"/><path d="M340.92962,177.30001c0,-31.22485 -25.40826,-56.53759 -56.75094,-56.53759c-31.34268,0 -56.75094,25.31274 -56.75094,56.5376c0,31.22485 25.40826,56.53759 56.75094,56.53759c31.34268,0 56.75094,-25.31274 56.75094,-56.53759z" fill="#00d0ff" stroke="#ffffff" stroke-width="2.5" stroke-linecap="butt"/><path d="M191.17868,50.30001l193,247" fill="none" stroke="#ffffff" stroke-width="2.5" stroke-linecap="round"/><path d="M156.17868,264.30001l252,-178" fill="none" stroke="#ffffff" stroke-width="2.5" stroke-linecap="round"/><path d="M296.17868,20.3l-22,313" fill="none" stroke="#ffffff" stroke-width="2.5" stroke-linecap="round"/><path d="M439.17868,185.30001l-309,-28" fill="none" stroke="#ffffff" stroke-width="2.5" stroke-linecap="round"/><path d="M-4.31435,93.71598c0.55902,-1.11803 1.67705,-0.55902 1.67705,-0.55902l0.74415,0.40536c3.32297,0.83074 7.01641,1.78843 10.17518,3.05783c1.97496,0.79367 2.50916,2.5156 4.20463,3.60793c6.82614,4.38496 13.68977,9.0913 20.48029,13.4874c3.38653,2.1924 8.49838,2.99098 12.28212,4.39156c2.96798,1.09861 5.14339,3.07398 8.08749,4.03723c2.73621,1.69844 5.45088,3.87098 8.32557,5.30318c3.40902,1.69841 7.29757,2.47241 10.71511,4.2169c2.67934,1.36768 5.02796,3.41831 7.82822,4.58302c5.73087,2.38363 12.41865,4.33256 18.42032,5.81764c6.07205,1.21956 13.34187,2.79055 18.62061,6.41377c4.33405,2.97481 9.04429,8.04622 14.55729,8.04622c0,0 1.25,0 1.25,1.25c0,1.25 -1.25,1.25 -1.25,1.25c-6.14794,0 -11.1799,-5.15181 -15.97825,-8.48931c-4.97032,-3.45711 -12.0118,-4.88934 -17.74676,-6.03128c-6.14407,-1.5363 -12.96209,-3.50674 -18.8333,-5.94874c-2.87032,-1.19385 -5.27107,-3.27073 -8.01525,-4.67002c-3.40707,-1.73731 -7.28189,-2.50615 -10.68282,-4.20053c-2.86068,-1.42522 -5.56754,-3.56949 -8.27649,-5.27939c-2.53469,-0.8595 -4.10625,-2.33053 -6.54308,-3.37141c-4.40969,-1.88357 -10.02294,-2.63626 -14.08731,-5.1998c-6.84755,-4.319 -13.65911,-9.1584 -20.51971,-13.5126c-1.31995,-0.90255 -2.33157,-2.88825 -3.79537,-3.39207c-3.19338,-1.09911 -6.52813,-2.118 -9.82482,-2.94217l-1.25585,-0.59464c0,0 -1.11803,-0.55902 -0.55902,-1.67705z" fill="#ffffff" stroke="none" stroke-width="0.5" stroke-linecap="butt"/><path d="M643.57132,105.775c0,1.25 -1.25,1.25 -1.25,1.25l0.36036,-0.34369c-0.76697,0.72561 -1.78954,1.12624 -2.7032,1.657c-1.84826,1.07367 -3.03728,3.16076 -5.15147,4.07983c-8.62407,3.74898 -18.02633,5.29709 -26.71543,9.02099c-8.6097,3.6818 -16.33584,9.35583 -24.74742,13.46184c-6.24862,3.05019 -13.38873,5.48535 -20.19473,6.88606c-5.88511,1.20605 -12.73775,2.65076 -18.15213,5.32311c-2.07327,1.02329 -4.08858,2.40647 -6.21097,3.31692c-7.26245,3.1154 -13.98457,5.80297 -20.61626,10.30795c-2.2898,1.13893 -3.88003,1.25293 -6.2077,2.09748c-8.22087,2.98279 -15.74005,5.95816 -24.49396,7.2636c-4.73122,0.70555 -9.42765,0.57573 -13.89995,2.47636c-2.5279,0.43111 -4.59468,1.32012 -6.97995,1.9191c-3.26488,0.81987 -6.96349,1.40202 -10.14209,3.01172c-2.14838,1.08798 -3.96533,2.89091 -6.03833,4.11256c-4.46806,2.6331 -9.52194,4.06017 -13.96366,6.73103c0,0 -1.07187,0.64312 -1.71499,-0.42875c-0.64312,-1.07187 0.42875,-1.71499 0.42875,-1.71499c4.45502,-2.66753 9.50808,-4.10537 13.98062,-6.74111c2.12438,-1.25193 3.97406,-3.07172 6.17765,-4.18881c3.34517,-1.69579 7.24554,-2.35584 10.69766,-3.21478c2.29731,-0.5716 4.40521,-1.48557 6.85449,-1.88602c4.57864,-1.94517 9.39059,-1.82713 14.23106,-2.54897c8.61315,-1.28445 15.9183,-4.22525 24.01272,-7.14201c2.26519,-0.81625 3.63514,-0.81717 5.7923,-1.90252c6.71007,-4.58028 13.56018,-7.29003 20.91161,-10.45598c2.0759,-0.894 4.04452,-2.25698 6.07649,-3.25556c5.60314,-2.75357 12.66984,-4.28244 18.75475,-5.52944c6.59927,-1.34618 13.55578,-3.73057 19.61093,-6.68891c8.44593,-4.12639 16.20636,-9.79639 24.84831,-13.50776c8.68302,-3.72129 18.03652,-5.36043 26.68884,-9.00941c2.0155,-0.85001 3.08818,-2.83594 4.84853,-3.92017c0.74616,-0.45957 1.67227,-0.6828 2.27328,-1.32057l1.38388,-0.36612c0,0 1.25,0 1.25,1.25z" fill="#ffffff" stroke="none" stroke-width="0.5" stroke-linecap="butt"/></g></g></svg>